<?xml version="1.0" encoding="UTF-8"?>
<svg xmlns="http://www.w3.org/2000/svg" xmlns:xlink="http://www.w3.org/1999/xlink" width="96px" height="96px" viewBox="0 0 96 96" version="1.1">
<g id="surface1">
<path style=" stroke:none;fill-rule:nonzero;fill:rgb(0%,0%,0%);fill-opacity:1;" d="M 46.125 96.074219 C 30.75 96.074219 15.414062 96.074219 0.0742188 96.074219 C 0.0742188 64.074219 0.0742188 32.074219 0.0742188 0.0742188 C 32.074219 0.0742188 64.074219 0.0742188 96.074219 0.0742188 C 96.074219 32.074219 96.074219 64.074219 96.074219 96.074219 C 79.4375 96.074219 62.800781 96.074219 46.125 96.074219 M 46.808594 36.21875 C 46.816406 35.441406 46.535156 34.8125 45.867188 34.375 C 43.726562 32.972656 41.585938 31.570312 39.445312 30.164062 C 38.625 29.628906 37.816406 29.621094 36.996094 30.160156 C 35.199219 31.339844 33.398438 32.507812 31.601562 33.6875 C 31.183594 33.960938 30.761719 34.230469 30.367188 34.53125 C 29.914062 34.875 29.648438 35.351562 29.640625 35.914062 C 29.625 37.761719 29.640625 39.609375 29.640625 41.457031 C 29.640625 41.472656 29.644531 41.484375 29.625 41.539062 C 29.511719 41.65625 29.402344 41.773438 29.285156 41.886719 C 27.910156 43.273438 27.015625 44.917969 26.675781 46.84375 C 26.355469 48.675781 26.441406 50.5 26.824219 52.316406 C 27.160156 53.917969 27.8125 55.378906 28.875 56.632812 C 30.636719 58.707031 32.933594 59.726562 35.617188 59.917969 C 36.953125 60.011719 38.257812 59.832031 39.53125 59.472656 C 39.535156 59.625 39.539062 59.773438 39.535156 59.921875 C 39.519531 60.78125 39.867188 61.433594 40.597656 61.898438 C 41.671875 62.582031 42.730469 63.292969 43.796875 63.992188 C 44.839844 64.675781 45.882812 65.363281 46.929688 66.042969 C 47.738281 66.570312 48.535156 66.570312 49.347656 66.027344 C 50.425781 65.304688 51.519531 64.605469 52.609375 63.894531 C 53.644531 63.21875 54.679688 62.539062 55.710938 61.863281 C 56.378906 61.425781 56.738281 60.820312 56.710938 60.007812 C 56.707031 59.808594 56.710938 59.609375 56.765625 59.40625 C 58.417969 59.96875 60.109375 60.082031 61.824219 59.773438 C 65.664062 59.089844 68.449219 56.453125 69.382812 52.578125 C 69.722656 51.171875 69.808594 49.742188 69.75 48.300781 C 69.699219 47.011719 69.417969 45.78125 68.886719 44.605469 C 68.351562 43.429688 67.578125 42.425781 66.640625 41.476562 C 66.636719 39.8125 66.636719 38.152344 66.632812 36.492188 C 66.632812 36.304688 66.628906 36.117188 66.617188 35.929688 C 66.578125 35.257812 66.261719 34.742188 65.703125 34.378906 C 63.5625 32.972656 61.417969 31.574219 59.277344 30.167969 C 58.457031 29.628906 57.648438 29.621094 56.824219 30.15625 C 54.789062 31.492188 52.757812 32.839844 50.707031 34.152344 C 49.917969 34.65625 49.429688 35.289062 49.433594 36.25 C 49.433594 36.261719 49.429688 36.273438 49.363281 36.289062 C 48.511719 36.289062 47.660156 36.285156 46.808594 36.21875 Z M 46.808594 36.21875 "/>
<path style=" stroke:none;fill-rule:nonzero;fill:rgb(94.117647%,81.568629%,38.039216%);fill-opacity:1;" d="M 39.523438 59.40625 C 38.257812 59.832031 36.953125 60.011719 35.617188 59.917969 C 32.933594 59.726562 30.636719 58.707031 28.875 56.632812 C 27.8125 55.378906 27.160156 53.917969 26.824219 52.316406 C 26.441406 50.5 26.355469 48.675781 26.675781 46.84375 C 27.015625 44.917969 27.910156 43.273438 29.285156 41.886719 C 29.402344 41.773438 29.511719 41.65625 29.660156 41.511719 C 29.976562 41.257812 30.253906 41.035156 30.527344 40.808594 C 30.660156 40.703125 30.789062 40.589844 30.941406 40.476562 C 31.109375 40.441406 31.140625 40.359375 31.054688 40.238281 C 31.015625 40.179688 30.964844 40.128906 30.917969 40.042969 C 30.789062 39.75 30.636719 39.492188 30.535156 39.21875 C 30.320312 38.621094 30.386719 38.238281 30.945312 38.042969 C 30.953125 38.039062 30.960938 38.027344 31 38.011719 C 31.367188 37.828125 31.707031 37.648438 32.050781 37.46875 C 32.390625 37.292969 32.585938 37.308594 32.851562 37.582031 C 32.996094 37.730469 33.113281 37.914062 33.21875 38.097656 C 33.382812 38.382812 33.53125 38.679688 33.671875 38.9375 C 34.703125 38.585938 35.691406 38.25 36.679688 37.917969 C 36.972656 37.816406 37.273438 37.734375 37.601562 37.644531 C 38.042969 37.542969 38.453125 37.441406 38.894531 37.339844 C 39.601562 37.21875 40.269531 37.0625 40.949219 36.972656 C 42.371094 36.777344 43.800781 36.617188 45.222656 36.441406 C 45.320312 36.429688 45.417969 36.398438 45.546875 36.382812 C 45.992188 36.351562 46.402344 36.316406 46.8125 36.285156 C 47.660156 36.285156 48.511719 36.289062 49.425781 36.292969 C 49.921875 36.320312 50.351562 36.34375 50.808594 36.371094 C 52.125 36.519531 53.414062 36.644531 54.695312 36.8125 C 55.59375 36.929688 56.480469 37.113281 57.402344 37.28125 C 57.851562 37.390625 58.277344 37.484375 58.726562 37.597656 C 58.90625 37.660156 59.0625 37.703125 59.21875 37.746094 C 61.335938 38.339844 63.351562 39.15625 65.183594 40.386719 C 65.226562 40.414062 65.273438 40.425781 65.332031 40.46875 C 65.777344 40.839844 66.210938 41.191406 66.644531 41.542969 C 67.578125 42.425781 68.351562 43.429688 68.886719 44.605469 C 69.417969 45.78125 69.699219 47.011719 69.75 48.300781 C 69.808594 49.742188 69.722656 51.171875 69.382812 52.578125 C 68.449219 56.453125 65.664062 59.089844 61.824219 59.773438 C 60.109375 60.082031 58.417969 59.96875 56.71875 59.390625 C 56.257812 59.175781 55.84375 58.980469 55.417969 58.765625 C 55.03125 58.523438 54.65625 58.300781 54.28125 58.078125 C 52.734375 57.152344 51.191406 56.222656 49.636719 55.308594 C 49.363281 55.148438 49.058594 55.046875 48.746094 54.894531 C 48.300781 54.671875 47.878906 54.675781 47.441406 54.910156 C 47.003906 55.125 46.582031 55.3125 46.1875 55.550781 C 44.4375 56.585938 42.691406 57.636719 40.949219 58.683594 C 40.90625 58.707031 40.875 58.75 40.816406 58.785156 C 40.367188 58.992188 39.945312 59.199219 39.523438 59.40625 Z M 39.523438 59.40625 "/>
<path style=" stroke:none;fill-rule:nonzero;fill:rgb(48.627451%,61.176473%,39.607844%);fill-opacity:1;" d="M 47.46875 54.90625 C 47.878906 54.675781 48.300781 54.671875 48.75 54.925781 C 48.738281 55.242188 48.8125 55.433594 49.09375 55.523438 C 49.195312 55.558594 49.285156 55.636719 49.378906 55.699219 C 51.273438 56.9375 53.164062 58.175781 55.054688 59.417969 C 55.15625 59.480469 55.261719 59.539062 55.433594 59.636719 C 55.433594 59.304688 55.433594 59.046875 55.433594 58.785156 C 55.84375 58.980469 56.257812 59.175781 56.6875 59.390625 C 56.710938 59.609375 56.707031 59.808594 56.710938 60.007812 C 56.738281 60.820312 56.378906 61.425781 55.710938 61.863281 C 54.679688 62.539062 53.644531 63.21875 52.609375 63.894531 C 51.519531 64.605469 50.425781 65.304688 49.347656 66.027344 C 48.535156 66.570312 47.738281 66.570312 46.929688 66.042969 C 45.882812 65.363281 44.839844 64.675781 43.796875 63.992188 C 42.730469 63.292969 41.671875 62.582031 40.597656 61.898438 C 39.867188 61.433594 39.519531 60.78125 39.535156 59.921875 C 39.539062 59.773438 39.535156 59.625 39.527344 59.4375 C 39.945312 59.199219 40.367188 58.992188 40.820312 58.820312 C 40.863281 59.082031 40.871094 59.3125 40.878906 59.617188 C 43.109375 58.160156 45.273438 56.746094 47.46875 55.3125 C 47.46875 55.203125 47.46875 55.054688 47.46875 54.90625 M 48.605469 64.9375 C 50.671875 63.585938 52.738281 62.230469 54.832031 60.859375 C 54.710938 60.773438 54.621094 60.703125 54.53125 60.644531 C 52.589844 59.367188 50.640625 58.101562 48.710938 56.8125 C 48.296875 56.535156 47.960938 56.539062 47.546875 56.8125 C 45.613281 58.097656 43.664062 59.363281 41.722656 60.636719 C 41.632812 60.695312 41.546875 60.765625 41.433594 60.851562 C 41.566406 60.941406 41.664062 61.015625 41.765625 61.082031 C 42.445312 61.527344 43.125 61.972656 43.804688 62.417969 C 45.078125 63.253906 46.351562 64.089844 47.621094 64.929688 C 47.929688 65.132812 48.234375 65.203125 48.605469 64.9375 Z M 48.605469 64.9375 "/>
<path style=" stroke:none;fill-rule:nonzero;fill:rgb(48.627451%,61.176473%,39.607844%);fill-opacity:1;" d="M 50.777344 36.363281 C 50.351562 36.34375 49.921875 36.320312 49.460938 36.292969 C 49.429688 36.273438 49.433594 36.261719 49.433594 36.25 C 49.429688 35.289062 49.917969 34.65625 50.707031 34.152344 C 52.757812 32.839844 54.789062 31.492188 56.824219 30.15625 C 57.648438 29.621094 58.457031 29.628906 59.277344 30.167969 C 61.417969 31.574219 63.5625 32.972656 65.703125 34.378906 C 66.261719 34.742188 66.578125 35.257812 66.617188 35.929688 C 66.628906 36.117188 66.632812 36.304688 66.632812 36.492188 C 66.636719 38.152344 66.636719 39.8125 66.640625 41.507812 C 66.210938 41.191406 65.777344 40.839844 65.332031 40.433594 C 65.320312 39.011719 65.3125 37.648438 65.328125 36.285156 C 65.332031 35.863281 65.179688 35.59375 64.824219 35.363281 C 62.894531 34.117188 60.976562 32.851562 59.050781 31.589844 C 58.960938 31.53125 58.863281 31.484375 58.703125 31.390625 C 58.703125 33.496094 58.703125 35.539062 58.703125 37.582031 C 58.277344 37.484375 57.851562 37.390625 57.402344 37.246094 C 57.378906 35.285156 57.378906 33.371094 57.378906 31.402344 C 57.238281 31.480469 57.140625 31.523438 57.050781 31.582031 C 55.140625 32.828125 53.234375 34.085938 51.316406 35.320312 C 50.910156 35.578125 50.703125 35.882812 50.777344 36.363281 Z M 50.777344 36.363281 "/>
<path style=" stroke:none;fill-rule:nonzero;fill:rgb(48.627451%,61.176473%,39.607844%);fill-opacity:1;" d="M 38.867188 37.339844 C 38.453125 37.441406 38.042969 37.542969 37.597656 37.609375 C 37.566406 35.535156 37.566406 33.492188 37.566406 31.386719 C 37.398438 31.480469 37.292969 31.535156 37.195312 31.601562 C 35.53125 32.6875 33.871094 33.769531 32.207031 34.855469 C 31.894531 35.0625 31.582031 35.269531 31.269531 35.472656 C 31.066406 35.605469 30.949219 35.792969 30.953125 36.035156 C 30.957031 36.695312 30.964844 37.359375 30.972656 38.019531 C 30.960938 38.027344 30.953125 38.039062 30.945312 38.042969 C 30.386719 38.238281 30.320312 38.621094 30.535156 39.21875 C 30.636719 39.492188 30.789062 39.75 30.929688 40.074219 C 30.929688 40.246094 30.925781 40.363281 30.917969 40.480469 C 30.789062 40.589844 30.660156 40.703125 30.527344 40.808594 C 30.253906 41.035156 29.976562 41.257812 29.671875 41.488281 C 29.644531 41.484375 29.640625 41.472656 29.640625 41.457031 C 29.640625 39.609375 29.625 37.761719 29.640625 35.914062 C 29.648438 35.351562 29.914062 34.875 30.367188 34.53125 C 30.761719 34.230469 31.183594 33.960938 31.601562 33.6875 C 33.398438 32.507812 35.199219 31.339844 36.996094 30.160156 C 37.816406 29.621094 38.625 29.628906 39.445312 30.164062 C 41.585938 31.570312 43.726562 32.972656 45.867188 34.375 C 46.535156 34.8125 46.816406 35.441406 46.808594 36.253906 C 46.402344 36.316406 45.992188 36.351562 45.542969 36.351562 C 45.5 35.984375 45.46875 35.675781 45.144531 35.464844 C 43.125 34.152344 41.113281 32.828125 39.09375 31.507812 C 39.039062 31.472656 38.96875 31.460938 38.867188 31.421875 C 38.867188 33.421875 38.867188 35.382812 38.867188 37.339844 Z M 38.867188 37.339844 "/>
<path style=" stroke:none;fill-rule:nonzero;fill:rgb(0.392157%,0.392157%,0.392157%);fill-opacity:1;" d="M 58.726562 37.597656 C 58.703125 35.539062 58.703125 33.496094 58.703125 31.390625 C 58.863281 31.484375 58.960938 31.53125 59.050781 31.589844 C 60.976562 32.851562 62.894531 34.117188 64.824219 35.363281 C 65.179688 35.59375 65.332031 35.863281 65.328125 36.285156 C 65.3125 37.648438 65.320312 39.011719 65.320312 40.410156 C 65.273438 40.425781 65.226562 40.414062 65.183594 40.386719 C 63.351562 39.15625 61.335938 38.339844 59.21875 37.746094 C 59.0625 37.703125 58.90625 37.660156 58.726562 37.597656 Z M 58.726562 37.597656 "/>
<path style=" stroke:none;fill-rule:nonzero;fill:rgb(0.784314%,0.784314%,0.392157%);fill-opacity:1;" d="M 31 38.011719 C 30.964844 37.359375 30.957031 36.695312 30.953125 36.035156 C 30.949219 35.792969 31.066406 35.605469 31.269531 35.472656 C 31.582031 35.269531 31.894531 35.0625 32.207031 34.855469 C 33.871094 33.769531 35.53125 32.6875 37.195312 31.601562 C 37.292969 31.535156 37.398438 31.480469 37.566406 31.386719 C 37.566406 33.492188 37.566406 35.535156 37.566406 37.613281 C 37.273438 37.734375 36.972656 37.816406 36.679688 37.917969 C 35.691406 38.25 34.703125 38.585938 33.671875 38.9375 C 33.53125 38.679688 33.382812 38.382812 33.21875 38.097656 C 33.113281 37.914062 32.996094 37.730469 32.851562 37.582031 C 32.585938 37.308594 32.390625 37.292969 32.050781 37.46875 C 31.707031 37.648438 31.367188 37.828125 31 38.011719 Z M 31 38.011719 "/>
<path style=" stroke:none;fill-rule:nonzero;fill:rgb(0.784314%,0.784314%,0.392157%);fill-opacity:1;" d="M 38.894531 37.339844 C 38.867188 35.382812 38.867188 33.421875 38.867188 31.421875 C 38.96875 31.460938 39.039062 31.472656 39.09375 31.507812 C 41.113281 32.828125 43.125 34.152344 45.144531 35.464844 C 45.46875 35.675781 45.5 35.984375 45.507812 36.347656 C 45.417969 36.398438 45.320312 36.429688 45.222656 36.441406 C 43.800781 36.617188 42.371094 36.777344 40.949219 36.972656 C 40.269531 37.0625 39.601562 37.21875 38.894531 37.339844 Z M 38.894531 37.339844 "/>
<path style=" stroke:none;fill-rule:nonzero;fill:rgb(0.784314%,0.784314%,0.392157%);fill-opacity:1;" d="M 50.808594 36.371094 C 50.703125 35.882812 50.910156 35.578125 51.316406 35.320312 C 53.234375 34.085938 55.140625 32.828125 57.050781 31.582031 C 57.140625 31.523438 57.238281 31.480469 57.378906 31.402344 C 57.378906 33.371094 57.378906 35.285156 57.378906 37.234375 C 56.480469 37.113281 55.59375 36.929688 54.695312 36.8125 C 53.414062 36.644531 52.125 36.519531 50.808594 36.371094 Z M 50.808594 36.371094 "/>
<path style=" stroke:none;fill-rule:nonzero;fill:rgb(3.137255%,3.137255%,1.568628%);fill-opacity:1;" d="M 55.417969 58.765625 C 55.433594 59.046875 55.433594 59.304688 55.433594 59.636719 C 55.261719 59.539062 55.15625 59.480469 55.054688 59.417969 C 53.164062 58.175781 51.273438 56.9375 49.378906 55.699219 C 49.285156 55.636719 49.195312 55.558594 49.09375 55.523438 C 48.8125 55.433594 48.738281 55.242188 48.769531 54.945312 C 49.058594 55.046875 49.363281 55.148438 49.636719 55.308594 C 51.191406 56.222656 52.734375 57.152344 54.28125 58.078125 C 54.65625 58.300781 55.03125 58.523438 55.417969 58.765625 Z M 55.417969 58.765625 "/>
<path style=" stroke:none;fill-rule:nonzero;fill:rgb(3.137255%,3.137255%,1.568628%);fill-opacity:1;" d="M 47.441406 54.910156 C 47.46875 55.054688 47.46875 55.203125 47.46875 55.3125 C 45.273438 56.746094 43.109375 58.160156 40.878906 59.617188 C 40.871094 59.3125 40.863281 59.082031 40.847656 58.816406 C 40.875 58.75 40.90625 58.707031 40.949219 58.683594 C 42.691406 57.636719 44.4375 56.585938 46.1875 55.550781 C 46.582031 55.3125 47.003906 55.125 47.441406 54.910156 Z M 47.441406 54.910156 "/>
<path style=" stroke:none;fill-rule:nonzero;fill:rgb(3.137255%,3.137255%,1.568628%);fill-opacity:1;" d="M 30.941406 40.476562 C 30.925781 40.363281 30.929688 40.246094 30.929688 40.101562 C 30.964844 40.128906 31.015625 40.179688 31.054688 40.238281 C 31.140625 40.359375 31.109375 40.441406 30.941406 40.476562 Z M 30.941406 40.476562 "/>
<path style=" stroke:none;fill-rule:nonzero;fill:rgb(0.392157%,0.392157%,0.392157%);fill-opacity:1;" d="M 48.582031 64.953125 C 48.234375 65.203125 47.929688 65.132812 47.621094 64.929688 C 46.351562 64.089844 45.078125 63.253906 43.804688 62.417969 C 43.125 61.972656 42.445312 61.527344 41.765625 61.082031 C 41.664062 61.015625 41.566406 60.941406 41.433594 60.851562 C 41.546875 60.765625 41.632812 60.695312 41.722656 60.636719 C 43.664062 59.363281 45.613281 58.097656 47.546875 56.8125 C 47.960938 56.539062 48.296875 56.535156 48.710938 56.8125 C 50.640625 58.101562 52.589844 59.367188 54.53125 60.644531 C 54.621094 60.703125 54.710938 60.773438 54.832031 60.859375 C 52.738281 62.230469 50.671875 63.585938 48.582031 64.953125 Z M 48.582031 64.953125 "/>
</g>
</svg>
